HIERARCHY
ROOT Hips
{
	OFFSET 0.00 0.00 0.00
	CHANNELS 6 Xposition Yposition Zposition Xrotation Yrotation Zrotation
	JOINT Spine
	{
		OFFSET 0.00000 1.70439 2.55658
		CHANNELS 3 Xrotation Yrotation Zrotation
		JOINT Spine1
		{
			OFFSET 0.00000 0.59193 3.35699
			CHANNELS 3 Xrotation Yrotation Zrotation
			JOINT Spine2
			{
				OFFSET 0.00000 0.29710 3.39581
				CHANNELS 3 Xrotation Yrotation Zrotation
				JOINT Spine3
				{
					OFFSET 0.00000 0.00000 3.40878
					CHANNELS 3 Xrotation Yrotation Zrotation
					JOINT Neck
					{
						OFFSET 0.00000 -1.27828 8.94804
						CHANNELS 3 Xrotation Yrotation Zrotation
						JOINT Head
						{
							OFFSET 0.00000 -0.81390 4.61586
							CHANNELS 3 Xrotation Yrotation Zrotation
							End Site
							{
								OFFSET 0.00000 0.00001 5.51796
							}
						}
					}
					JOINT RightShoulder
					{
						OFFSET -1.18875 -1.98124 6.41925
						CHANNELS 3 Xrotation Yrotation Zrotation
						JOINT RightArm
						{
							OFFSET -5.90412 0.00000 0.00000
							CHANNELS 3 Xrotation Yrotation Zrotation
							JOINT RightForeArm
							{
								OFFSET -11.94674 0.00000 0.00000
								CHANNELS 3 Xrotation Yrotation Zrotation
								JOINT RightHand
								{
									OFFSET -10.17720 0.00000 0.00000
									CHANNELS 3 Xrotation Yrotation Zrotation
									JOINT RightHandEnd
									{
										OFFSET -2.84518 0.00000 0.00000
										CHANNELS 3 Xrotation Yrotation Zrotation
										End Site
										{
											OFFSET -2.84518 0.00000 0.00000
										}
									}
									JOINT RightHandThumb1
									{
										OFFSET -1.13807 -1.89679 -0.75871
										CHANNELS 3 Yrotation Xrotation Zrotation
										End Site
										{
											OFFSET -2.74823 -0.73639 0.00000
										}
									}
								}
							}
						}
					}
					JOINT LeftShoulder
					{
						OFFSET 1.18875 -1.98124 6.41925
						CHANNELS 3 Xrotation Yrotation Zrotation
						JOINT LeftArm
						{
							OFFSET 5.90412 0.00000 0.00000
							CHANNELS 3 Xrotation Yrotation Zrotation
							JOINT LeftForeArm
							{
								OFFSET 11.94674 0.00000 0.00000
								CHANNELS 3 Xrotation Yrotation Zrotation
								JOINT LeftHand
								{
									OFFSET 10.17720 0.00000 0.00000
									CHANNELS 3 Xrotation Yrotation Zrotation
									JOINT LeftHandEnd
									{
										OFFSET 2.84518 0.00000 0.00000
										CHANNELS 3 Xrotation Yrotation Zrotation
										End Site
										{
											OFFSET 2.84518 0.00000 0.00000
										}
									}
									JOINT LeftHandThumb1
									{
										OFFSET 1.13807 -1.89679 -0.75871
										CHANNELS 3 Yrotation Xrotation Zrotation
										End Site
										{
											OFFSET 2.74823 -0.73639 0.00000
										}
									}
								}
							}
						}
					}
				}
			}
		}
	}
	JOINT RightUpLeg
	{
		OFFSET -3.52662 0.00000 -1.03025
		CHANNELS 3 Xrotation Yrotation Zrotation
		JOINT RightLeg
		{
			OFFSET 0.00001 0.00000 -17.80159
			CHANNELS 3 Xrotation Yrotation Zrotation
			JOINT RightFoot
			{
				OFFSET 0.00001 0.00000 -16.85992
				CHANNELS 3 Xrotation Yrotation Zrotation
				JOINT RightToeBase
				{
					OFFSET 0.00000 -5.42953 -1.97619
					CHANNELS 3 Xrotation Yrotation Zrotation
					End Site
					{
						OFFSET 0.00000 -2.85300 -0.00000
					}
				}
			}
		}
	}
	JOINT LeftUpLeg
	{
		OFFSET 3.52662 0.00000 -1.03025
		CHANNELS 3 Xrotation Yrotation Zrotation
		JOINT LeftLeg
		{
			OFFSET 0.00001 0.00000 -17.80159
			CHANNELS 3 Xrotation Yrotation Zrotation
			JOINT LeftFoot
			{
				OFFSET 0.00001 0.00000 -16.85992
				CHANNELS 3 Xrotation Yrotation Zrotation
				JOINT LeftToeBase
				{
					OFFSET 0.00000 -5.42953 -1.97619
					CHANNELS 3 Xrotation Yrotation Zrotation
					End Site
					{
						OFFSET 0.00000 -2.85300 -0.00000
					}
				}
			}
		}
	}
}
MOTION
Frames: 12
Frame Time: 0.008342
 2.4276 -103.1369 37.4784 1.6649 -0.0020 -178.8173 1.5267 -2.1088 -0.5233 0.8625 -0.3789 -0.1697 -0.2650 -1.2268 -0.5660 -0.4363 0.5898 0.0195 2.5500 1.1238 -1.6324 -5.3727 0.2194 -1.9260 0.0022 13.3893 -1.6357 -2.4768 2.6968 -3.0703 0.0000 0.0000 10.2207 -5.3803 19.5606 -6.2392 0.0000 -0.0000 0.0000 -0.0000 -0.0000 0.0000 -3.1740 -8.6887 -3.2254 0.1636 5.7992 3.6582 -0.0000 -0.0000 -13.6747 -8.2445 -15.7009 3.4655 0.0000 0.0000 -0.0000 0.0000 -0.0000 0.0000 2.9645 5.7744 -34.5338 10.6064 0.0000 0.0000 -10.7498 -7.8550 -1.8217 2.2593 0.0000 0.0000 1.9244 -5.5742 10.5465 11.3046 0.0000 0.0000 -8.9164 15.5461 1.8404 -2.0440 0.0000 -0.0000
 2.4258 -103.1362 37.4786 1.6755 0.0036 -178.8391 1.5184 -2.1127 -0.5233 0.8623 -0.3776 -0.1683 -0.2687 -1.2173 -0.5518 -0.4370 0.5907 0.0175 2.5359 1.1327 -1.6172 -5.3907 0.2180 -1.9153 -0.0467 13.4182 -1.5876 -2.4718 2.6944 -3.0775 0.0000 0.0000 10.1975 -5.3303 19.5364 -6.2530 -0.0000 0.0000 -0.0000 -0.0000 0.0000 0.0000 -3.1915 -8.6724 -3.1962 0.1754 5.7931 3.6729 -0.0000 -0.0000 -13.6672 -8.2367 -15.7197 3.4507 -0.0000 0.0000 0.0000 0.0000 -0.0000 0.0000 2.9777 5.7793 -34.5219 10.5942 0.0000 0.0000 -10.7474 -7.8429 -1.8161 2.2657 0.0000 0.0000 1.9522 -5.5590 10.5398 11.2808 0.0000 0.0000 -8.9201 15.5353 1.8761 -2.0495 0.0000 -0.0000
 2.4235 -103.1346 37.4788 1.6984 0.0102 -178.8673 1.5186 -2.1172 -0.5234 0.8624 -0.3815 -0.1677 -0.2748 -1.2005 -0.5322 -0.4382 0.5912 0.0154 2.5116 1.1471 -1.5984 -5.4063 0.2139 -1.9010 -0.1074 13.4565 -1.5344 -2.4667 2.6848 -3.0771 0.0000 0.0000 10.1667 -5.2687 19.5071 -6.2666 0.0000 0.0000 0.0000 -0.0000 -0.0000 0.0000 -3.2158 -8.6525 -3.1567 0.1913 5.7908 3.6894 -0.0000 -0.0000 -13.6540 -8.2289 -15.7380 3.4294 0.0000 -0.0000 -0.0000 0.0000 0.0000 0.0000 3.0055 5.7859 -34.5165 10.5781 0.0000 0.0000 -10.7419 -7.8312 -1.8000 2.2739 0.0000 0.0000 1.9991 -5.5404 10.5341 11.2487 0.0000 0.0000 -8.9239 15.5228 1.9173 -2.0548 0.0000 -0.0000
 2.4203 -103.1329 37.4789 1.7228 0.0202 -178.9027 1.5174 -2.1201 -0.5238 0.8621 -0.3875 -0.1678 -0.2811 -1.1811 -0.5081 -0.4408 0.5926 0.0133 2.4759 1.1678 -1.5763 -5.4202 0.2080 -1.8831 -0.1842 13.4985 -1.4706 -2.4561 2.6740 -3.0761 0.0000 0.0000 10.1329 -5.1978 19.4676 -6.2802 0.0000 0.0000 0.0000 -0.0000 -0.0000 0.0000 -3.2475 -8.6278 -3.1068 0.2103 5.7938 3.7100 -0.0000 -0.0000 -13.6373 -8.2186 -15.7550 3.4045 0.0000 0.0000 0.0000 0.0000 0.0000 0.0000 3.0322 5.7990 -34.5118 10.5661 0.0000 0.0000 -10.7375 -7.8194 -1.7780 2.2816 0.0000 0.0000 2.0516 -5.5155 10.5273 11.2111 0.0000 0.0000 -8.9278 15.5086 1.9661 -2.0600 0.0000 -0.0000
 2.4162 -103.1309 37.4791 1.7510 0.0338 -178.9449 1.5184 -2.1219 -0.5238 0.8621 -0.3953 -0.1677 -0.2890 -1.1590 -0.4807 -0.4443 0.5947 0.0105 2.4262 1.1955 -1.5508 -5.4294 0.1998 -1.8618 -0.2718 13.5465 -1.4014 -2.4432 2.6557 -3.0710 0.0000 0.0000 10.0960 -5.1209 19.4236 -6.2923 0.0000 0.0000 0.0000 0.0000 -0.0000 -0.0000 -3.2861 -8.5983 -3.0450 0.2303 5.8028 3.7321 -0.0000 -0.0000 -13.6174 -8.2080 -15.7661 3.3781 -0.0000 0.0000 0.0000 0.0000 0.0000 0.0000 3.0602 5.8196 -34.5112 10.5593 0.0000 0.0000 -10.7338 -7.8091 -1.7468 2.2893 0.0000 0.0000 2.1125 -5.4844 10.5230 11.1676 0.0000 0.0000 -8.9304 15.4937 2.0183 -2.0640 0.0000 -0.0000
 2.4117 -103.1290 37.4792 1.7751 0.0472 -178.9925 1.5144 -2.1263 -0.5242 0.8631 -0.4025 -0.1674 -0.2969 -1.1367 -0.4504 -0.4488 0.5975 0.0086 2.3623 1.2297 -1.5244 -5.4351 0.1907 -1.8381 -0.3642 13.5961 -1.3329 -2.4304 2.6323 -3.0600 0.0000 0.0000 10.0571 -5.0432 19.3754 -6.3007 -0.0000 0.0000 -0.0000 -0.0000 -0.0000 0.0000 -3.3323 -8.5632 -2.9742 0.2526 5.8179 3.7556 -0.0000 -0.0000 -13.5954 -8.2005 -15.7699 3.3513 0.0000 0.0000 -0.0000 0.0000 0.0000 0.0000 3.0803 5.8436 -34.5106 10.5590 0.0000 0.0000 -10.7308 -7.8003 -1.7116 2.2963 0.0000 0.0000 2.1697 -5.4525 10.5248 11.1248 0.0000 0.0000 -8.9332 15.4795 2.0683 -2.0662 0.0000 -0.0000
 2.4066 -103.1270 37.4791 1.8004 0.0627 -179.0447 1.5127 -2.1295 -0.5246 0.8645 -0.4113 -0.1669 -0.3053 -1.1141 -0.4183 -0.4543 0.6009 0.0065 2.2838 1.2703 -1.4965 -5.4352 0.1808 -1.8123 -0.4592 13.6474 -1.2629 -2.4155 2.6021 -3.0488 0.0000 0.0000 10.0206 -4.9666 19.3221 -6.3083 -0.0000 0.0000 -0.0000 -0.0000 0.0000 -0.0000 -3.3841 -8.5244 -2.8938 0.2754 5.8413 3.7789 -0.0000 -0.0000 -13.5732 -8.1926 -15.7632 3.3294 0.0000 0.0000 0.0000 0.0000 0.0000 0.0000 3.0975 5.8739 -34.5114 10.5673 0.0000 0.0000 -10.7298 -7.7944 -1.6709 2.3024 0.0000 0.0000 2.2297 -5.4177 10.5343 11.0809 0.0000 0.0000 -8.9341 15.4666 2.1136 -2.0659 0.0000 -0.0000
 2.4011 -103.1250 37.4790 1.8261 0.0790 -179.0998 1.5132 -2.1320 -0.5245 0.8670 -0.4209 -0.1674 -0.3137 -1.0929 -0.3852 -0.4608 0.6048 0.0059 2.1923 1.3162 -1.4693 -5.4301 0.1713 -1.7852 -0.5532 13.6970 -1.1922 -2.3970 2.5675 -3.0424 0.0000 0.0000 9.9898 -4.8967 19.2616 -6.3138 -0.0000 -0.0000 -0.0000 -0.0000 -0.0000 -0.0000 -3.4396 -8.4828 -2.8075 0.2977 5.8740 3.8024 -0.0000 -0.0000 -13.5526 -8.1868 -15.7454 3.3130 -0.0000 0.0000 0.0000 0.0000 0.0000 0.0000 3.1112 5.9085 -34.5113 10.5839 0.0000 0.0000 -10.7311 -7.7916 -1.6282 2.3076 0.0000 0.0000 2.2898 -5.3823 10.5515 11.0389 0.0000 0.0000 -8.9338 15.4556 2.1524 -2.0628 0.0000 -0.0000
 2.3955 -103.1232 37.4787 1.8495 0.0943 -179.1560 1.5140 -2.1349 -0.5244 0.8699 -0.4303 -0.1670 -0.3207 -1.0741 -0.3531 -0.4682 0.6085 0.0056 2.0895 1.3656 -1.4431 -5.4214 0.1637 -1.7579 -0.6398 13.7435 -1.1239 -2.3777 2.5284 -3.0406 0.0000 0.0000 9.9658 -4.8335 19.1971 -6.3191 0.0000 -0.0000 0.0000 0.0000 -0.0000 0.0000 -3.4965 -8.4386 -2.7173 0.3172 5.9153 3.8267 -0.0000 -0.0000 -13.5363 -8.1822 -15.7152 3.3054 -0.0000 0.0000 0.0000 -0.0000 0.0000 -0.0000 3.1187 5.9450 -34.5080 10.6086 0.0000 0.0000 -10.7346 -7.7920 -1.5870 2.3117 0.0000 0.0000 2.3451 -5.3490 10.5780 11.0021 0.0000 0.0000 -8.9327 15.4468 2.1814 -2.0563 0.0000 -0.0000
 2.3900 -103.1216 37.4783 1.8695 0.1082 -179.2113 1.5149 -2.1378 -0.5244 0.8737 -0.4396 -0.1661 -0.3264 -1.0584 -0.3230 -0.4760 0.6124 0.0060 1.9776 1.4162 -1.4187 -5.4115 0.1591 -1.7303 -0.7168 13.7850 -1.0585 -2.3555 2.4855 -3.0455 0.0000 0.0000 9.9488 -4.7803 19.1283 -6.3206 -0.0000 0.0000 -0.0000 0.0000 -0.0000 0.0000 -3.5533 -8.3925 -2.6256 0.3352 5.9641 3.8517 -0.0000 -0.0000 -13.5259 -8.1795 -15.6734 3.3069 0.0000 -0.0000 -0.0000 0.0000 -0.0000 0.0000 3.1188 5.9823 -34.4998 10.6413 0.0000 0.0000 -10.7411 -7.7954 -1.5500 2.3151 0.0000 0.0000 2.3926 -5.3190 10.6121 10.9731 0.0000 0.0000 -8.9318 15.4401 2.2005 -2.0461 0.0000 -0.0000
 2.3847 -103.1203 37.4777 1.8886 0.1205 -179.2639 1.5184 -2.1400 -0.5239 0.8782 -0.4484 -0.1658 -0.3306 -1.0468 -0.2956 -0.4840 0.6152 0.0078 1.8598 1.4669 -1.3973 -5.4011 0.1584 -1.7036 -0.7804 13.8207 -0.9976 -2.3309 2.4409 -3.0592 0.0000 0.0000 9.9407 -4.7372 19.0546 -6.3234 0.0000 -0.0000 -0.0000 -0.0000 -0.0000 0.0000 -3.6061 -8.3459 -2.5345 0.3520 6.0215 3.8746 -0.0000 -0.0000 -13.5201 -8.1807 -15.6231 3.3169 0.0000 -0.0000 -0.0000 0.0000 0.0000 0.0000 3.1156 6.0187 -34.4854 10.6792 0.0000 0.0000 -10.7504 -7.8013 -1.5200 2.3182 0.0000 0.0000 2.4344 -5.2931 10.6525 10.9526 0.0000 0.0000 -8.9313 15.4349 2.2093 -2.0326 0.0000 -0.0000
 2.3798 -103.1194 37.4770 1.9061 0.1300 -179.3118 1.5235 -2.1416 -0.5237 0.8829 -0.4565 -0.1650 -0.3321 -1.0397 -0.2729 -0.4919 0.6173 0.0110 1.7397 1.5147 -1.3788 -5.3939 0.1618 -1.6782 -0.8286 13.8496 -0.9410 -2.3052 2.3954 -3.0820 0.0000 0.0000 9.9402 -4.7019 18.9779 -6.3254 -0.0000 0.0000 -0.0000 0.0000 -0.0000 -0.0000 -3.6520 -8.2993 -2.4455 0.3668 6.0856 3.8958 -0.0000 -0.0000 -13.5193 -8.1851 -15.5668 3.3328 0.0000 -0.0000 0.0000 0.0000 -0.0000 0.0000 3.1097 6.0516 -34.4637 10.7200 0.0000 0.0000 -10.7621 -7.8091 -1.4998 2.3214 0.0000 0.0000 2.4683 -5.2729 10.6963 10.9424 0.0000 0.0000 -8.9326 15.4306 2.2089 -2.0158 0.0000 -0.0000
